::::::::::::  EP1C Presents  ::::::::::::

::File:: Dylan.Dog.Dead.of.Night.2011.DVDRip.AC3.XViD-EP1C

::Video Source:: DVD

::Language:::::: English
::IMDB:::::::::: http://www.imdb.com/title/tt1013860/

The adventures of supernatural private eye, Dylan Dog, who seeks
out the monsters of the Louisiana bayou in his signature red shirt,
black jacket, and blue jeans.

::Specs:::::::::

Format                           : AVI
Format/Info                      : Audio Video Interleave
File size                        : 1.37 GiB
Duration                         : 1h 47mn
Overall bit rate                 : 1 819 Kbps
Writing application              : VirtualDubMod 1.5.10.2 (build 2540/release)
Writing library                  : VirtualDubMod build 2540/release

Video
ID                               : 0
Format                           : MPEG-4 Visual
Format profile                   : Advanced Simple@L5
Format settings, BVOP            : Yes
Format settings, QPel            : No
Format settings, GMC             : No warppoints
Format settings, Matrix          : Default (MPEG)
Muxing mode                      : Packed bitstream
Codec ID                         : XVID
Codec ID/Hint                    : XviD
Duration                         : 1h 47mn
Bit rate                         : 1 425 Kbps
Width                            : 640 pixels
Height                           : 272 pixels
Display aspect ratio             : 2.35:1
Frame rate                       : 23.976 fps
Color space                      : YUV
Chroma subsampling               : 4:2:0
Bit depth                        : 8 bits
Scan type                        : Progressive
Bits/(Pixel*Frame)               : 0.341
Stream size                      : 1.07 GiB (78%)
Writing library                  : XviD 58

Audio
ID                               : 1
Format                           : AC-3
Format/Info                      : Audio Coding 3
Mode extension                   : CM (complete main)
Codec ID                         : 2000
Duration                         : 1h 47mn
Bit rate mode                    : Constant
Bit rate                         : 384 Kbps
Channel(s)                       : 6 channels
Channel positions                : Front: L C R, Side: L R, LFE
Sampling rate                    : 48.0 KHz
Bit depth                        : 16 bits
Stream size                      : 296 MiB (21%)
Alignment                        : Split accross interleaves
Interleave, duration             : 42 ms (1.00 video frame)
Interleave, preload duration     : 500 ms


::NOTES:::::::::
Presenting DVDRip of Dylan Dog: Dead of Night.
Enjoy. //EP1C

:: Got something we might be interested in? contact us: epic@hushmail.me ::

::::::::::::::::::::::::::::::::  RESPECT  :::::::::::::::::::::::::::::::::
IMAGiNE, Rx, FLAWL3SS, ViSiON, HiVE, bobwhite, Wobferry, Vik, OneTwo & All Our Friends!

                
              ::::::::::::::::  We Are  ::::::::::::::::  
              :::::: Surpassing the usual or ordinary ::::::
::::::::::::::::::    Heroic and impressive in quality    ::::::::::::::::::    
::::::::::::::::::::::::::::::::   EP1C   ::::::::::::::::::::::::::::::::


Screens:

 
http://leetleech.org/images/37480437748949153763.png
 
http://leetleech.org/images/05459677956989772639.png
 
http://leetleech.org/images/01011425267919878414.png


ENJOY!